<?xml version="1.0" encoding="UTF-8"?>
<!DOCTYPE svg PUBLIC "-//W3C//DTD SVG 1.1//EN" "http://www.w3.org/Graphics/SVG/1.1/DTD/svg11.dtd">
<svg xmlns="http://www.w3.org/2000/svg" xmlns:xlink="http://www.w3.org/1999/xlink">
  <symbol id="instacam" viewBox="0 0 167.33 91.63">
    <g><path d="M2.94 61.35H5.3V77.8H2.94V61.35zM7.48 61.35h2.26l3.55 9.9h.04v-9.9h2.35V77.8h-2.2l-3.6-9.88h-.05v9.88H7.48V61.35zM25.4 66.09h-2.34v-.54c0-1.08-.47-1.98-1.66-1.98-1.3 0-1.6 1.04-1.6 2.12 0 1.27.12 1.71 1.34 2.2l1.8.71c2.07.79 2.46 2.1 2.46 4.5 0 2.78-1.01 4.83-4.05 4.83-2.28 0-4.01-1.69-4.01-3.9v-.88h2.35v.74c0 .85.46 1.68 1.66 1.68 1.59 0 1.7-.94 1.7-2.44 0-1.76-.2-2.03-1.35-2.5L20 69.94c-2.02-.83-2.55-2.17-2.55-4.22 0-2.5 1.33-4.5 4.03-4.5 2.35 0 3.91 1.89 3.91 3.71v1.16zM28.7 63.57h-2.72v-2.22h7.79v2.22h-2.72v14.22H28.7V63.57zM36.14 61.35h1.95l3.67 16.44H39.4l-.7-3.53h-3.2l-.69 3.53h-2.35l3.67-16.44zm.99 4.74h-.05l-1.15 5.95h2.35l-1.15-5.95zM42.82 61.35h2.25l3.55 9.9h.05v-9.9h2.35V77.8H48.8l-3.6-9.88h-.04v9.88h-2.35V61.35zM54.68 63.57h-2.72v-2.22h7.79v2.22h-2.72v14.22h-2.35V63.57zM72.53 74.12a3.8 3.8 0 0 1-3.73 3.81c-1.8 0-3.87-.88-3.87-3.88V65a3.67 3.67 0 0 1 3.82-3.78c2.17 0 3.78 1.64 3.78 3.92v.92h-2.35v-.78c0-.92-.55-1.71-1.45-1.71-1.17 0-1.45.8-1.45 1.92v8.4c0 .95.37 1.69 1.43 1.69.64 0 1.47-.37 1.47-1.67v-.8h2.35v1.01zM77.05 61.35H79l3.67 16.44h-2.35l-.7-3.53h-3.2l-.69 3.53h-2.35l3.67-16.44zm.99 4.74h-.05l-1.15 5.95h2.35l-1.15-5.95zM83.72 61.35h2.26l3.55 9.9h.05v-9.9h2.35V77.8h-2.21l-3.6-9.88h-.05v9.88h-2.35V61.35zM98.65 77.8h-2.07l-3.34-16.45h2.49l1.86 11.48h.05l1.89-11.48h2.49L98.65 77.8zM105.17 61.35h1.96l3.66 16.44h-2.35l-.69-3.53h-3.2l-.7 3.53h-2.34l3.66-16.44zm1 4.74h-.05l-1.16 5.95h2.36l-1.16-5.95zM119.55 66.09h-2.35v-.54c0-1.08-.46-1.98-1.66-1.98-1.3 0-1.6 1.04-1.6 2.12 0 1.27.12 1.71 1.34 2.2l1.8.71c2.07.79 2.47 2.1 2.47 4.5 0 2.78-1.02 4.83-4.06 4.83-2.28 0-4-1.69-4-3.9v-.88h2.34v.74c0 .85.46 1.68 1.66 1.68 1.6 0 1.7-.94 1.7-2.44 0-1.76-.2-2.03-1.35-2.5l-1.69-.69c-2.02-.83-2.55-2.17-2.55-4.22 0-2.5 1.33-4.5 4.03-4.5 2.35 0 3.92 1.89 3.92 3.71v1.16zM130.19 77.8h-2.08l-3.34-16.45h2.5l1.86 11.48h.04l1.9-11.48h2.48L130.2 77.8zM135.02 61.35h2.35V77.8h-2.35V61.35zM139.65 61.35h3.48c2.65 0 4.13 1.6 4.13 4.25v7.69c0 3.05-1.57 4.5-4.34 4.5h-3.27V61.35zM142 75.57h1.09c1.3 0 1.82-.64 1.82-2.05V65.6c0-1.3-.44-2.03-1.82-2.03H142v12zM149.47 61.35h7v2.22h-4.65v4.83h4.05v2.21h-4.05v4.83h4.65v2.35h-7V61.35zM157.85 65.23a3.85 3.85 0 0 1 3.94-4.02 3.85 3.85 0 0 1 3.94 4.02v8.68a3.85 3.85 0 0 1-3.94 4.02 3.85 3.85 0 0 1-3.94-4.02v-8.68zm2.35 8.68c0 1.13.74 1.66 1.59 1.66s1.59-.53 1.59-1.66v-8.68c0-1.13-.74-1.66-1.59-1.66s-1.59.53-1.59 1.66v8.68z"/></g><path  fill="#000" d="M24.58 13.27a.97.97 0 0 0-.15.3 5.42 5.42 0 0 0 .15 2.43v19.65a28 28 0 0 1-.6 5.82 14.06 14.06 0 0 1-2.03 4.95c-.97 1.45-2.3 2.6-3.97 3.45-1.68.85-3.82 1.27-6.43 1.27h-.77c-2.25 0-4.08-.3-5.48-.92a8.71 8.71 0 0 1-3.29-2.34 7.7 7.7 0 0 1-1.6-3.12C.14 43.63 0 42.56 0 41.53c0-.87.1-1.72.33-2.53.21-.8.53-1.52.94-2.13.42-.62.92-1.11 1.51-1.49.6-.38 1.27-.56 2.02-.56.7 0 1.16.18 1.36.56.2.38.3.76.3 1.16 0 .87-.18 1.6-.54 2.17a9.17 9.17 0 0 1-1.15 1.51c-.42.44-.8.87-1.16 1.3-.35.44-.53.98-.53 1.6 0 1.9.63 3.27 1.9 4.1a8.44 8.44 0 0 0 4.73 1.25c1.66 0 3.1-.33 4.33-1a9.88 9.88 0 0 0 3.05-2.56c.8-1.03 1.41-2.15 1.8-3.35.4-1.21.6-2.35.6-3.42l-.89.06a6.86 6.86 0 0 1-3.7-.98 8.84 8.84 0 0 1-2.6-2.46 11.44 11.44 0 0 1-2.04-6.41v-2.08c-.01-.75.09-1.63.28-2.64a26.6 26.6 0 0 1 2.14-6.35c.51-1.05 1.06-2 1.66-2.82s1.22-1.5 1.9-2.02a3.38 3.38 0 0 1 2.07-.78c.27 0 .59.06.94.18l4.15.3c.28.04.54.14.8.3.25.16.38.43.38.83zm-5.1 7.12l.24-.89c.08-.28.12-.6.12-.95 0-.51-.13-.98-.38-1.4-.26-.41-.72-.62-1.4-.62-.86 0-1.58.36-2.13 1.07a7.73 7.73 0 0 0-1.27 2.55c-.3 1-.5 2.02-.62 3.09a24.83 24.83 0 0 0-.18 2.61c0 .52.04 1.26.12 2.23.08.97.27 1.93.56 2.88.3.95.71 1.78 1.25 2.49s1.25 1.07 2.16 1.07l.68-.06c.37-.04.66-.1.86-.18V20.4zM38.14 35.83c-.59.83-1.07 1.75-1.45 2.76-.37 1-.7 2.05-.97 3.14-.28 1.1-.5 2.18-.69 3.27a88.76 88.76 0 0 1-.56 3.11c-.08.24-.38.4-.92.48a8.92 8.92 0 0 1-2.9 0c-.45-.08-.8-.27-1.04-.56-.23-.3-.41-.76-.53-1.37-.12-.61-.22-1.43-.3-2.46l.77-17.63c0-.52.28-.78.83-.78a9.07 9.07 0 0 1 1.95.36 4 4 0 0 1 1.02.45c.27.17.41.38.41.62v12.05a299.13 299.13 0 0 0 1.18-3.12c.4-1.04.84-2.04 1.3-3 .48-.94.99-1.75 1.52-2.43.53-.67 1.07-1 1.63-1 .7 0 1.25.16 1.63.5.37.33.66.76.86 1.27.2.52.31 1.07.35 1.66.04.6.06 1.17.06 1.73 0 .4-.04 1.05-.12 1.96a51.2 51.2 0 0 0-.12 4.1c0 1.02.1 1.95.3 2.78.2.83.6 1.25 1.18 1.25.44 0 .83-.2 1.19-.6.35-.39.68-.89.98-1.48.3-.6.54-1.23.74-1.9.2-.67.31-1.3.35-1.9.04-.75.34-1.13.9-1.13.35 0 .58.12.7.36s.18.51.18.83v.12A13.49 13.49 0 0 1 47 44.73c-.5.87-1.14 1.6-1.93 2.2-.79.6-1.75.89-2.9.89-1.77 0-2.91-.64-3.4-1.93-.5-1.29-.74-3.2-.74-5.73l.11-4.33z"/><path fill="#000" d="M61.24 45.09c0 .95-.31 1.68-.94 2.2a6.1 6.1 0 0 1-2.17 1.12c-.8.24-1.62.39-2.43.45a14.43 14.43 0 0 1-6.16-.65c-.76-.26-1.42-.63-1.95-1.1s-.8-1.07-.8-1.78c0-.44.17-.75.5-.92.34-.18.66-.27.98-.27.44 0 .86.16 1.27.47l1.3 1.01c.46.36.96.7 1.52 1.01.55.32 1.18.48 1.9.48.3 0 .73-.11 1.27-.33s.8-.6.8-1.16c0-.55-.23-1.08-.68-1.6a14.01 14.01 0 0 0-1.72-1.6c-.7-.56-1.43-1.13-2.22-1.73-.8-.59-1.53-1.23-2.22-1.92a10 10 0 0 1-1.72-2.29 5.6 5.6 0 0 1-.68-2.73c0-1.39.44-2.55 1.33-3.5s1.93-1.7 3.14-2.26c1.2-.55 2.44-.95 3.7-1.19 1.26-.23 2.25-.35 2.96-.35.67 0 1.34.14 2.02.41.67.28 1 .81 1 1.6a5.69 5.69 0 0 1-.62 2.38c-.22.44-.5.82-.86 1.16-.35.33-.8.5-1.36.5a.72.72 0 0 1-.47-.2l-.54-.48a4.8 4.8 0 0 0-.62-.48c-.22-.13-.47-.2-.74-.2-1.38 0-2.35.4-2.9 1.21a4.5 4.5 0 0 0-.83 2.59c0 .79.46 1.62 1.39 2.49.93.87 1.96 1.74 3.08 2.61 1.13.87 2.15 1.73 3.08 2.58.93.86 1.4 1.68 1.4 2.47z"/><path fill="#000" d="M62.55 38.02c.04-2.02.1-4.07.17-6.17l.24-5.82c0-.31-.31-.53-.95-.65-.63-.12-1.34-.24-2.13-.36s-1.5-.3-2.13-.56c-.63-.26-.95-.68-.95-1.28 0-.51.52-.8 1.54-.89 1.03-.08 2.55-.12 4.56-.12.16 0 .27-.23.33-.71.06-.47.1-1.08.12-1.81l.06-2.35c.02-.83.05-1.6.09-2.34.04-.73.1-1.34.2-1.81.1-.48.23-.71.39-.71a17.92 17.92 0 0 1 2.67.45c.55.13 1.03.3 1.44.5.42.2.63.41.63.65l-.65 7.72c0 .23.2.4.62.5.41.1.95.16 1.6.18.65.02 1.34.03 2.07.03.73 0 1.42.06 2.07.18.65.12 1.19.3 1.6.56.42.26.62.65.62 1.16 0 .08-.04.2-.12.39-.08.17-.17.26-.3.26-.07 0-.18-.06-.32-.18-.14-.11-.5-.17-1.1-.17l-1.3.06a51.98 51.98 0 0 0-4.4.44c-.66.1-1.03.23-1.1.39-.04.08-.1.54-.15 1.4a224.48 224.48 0 0 0-.38 13.8c0 .75.03 1.48.11 2.19s.2 1.35.36 1.93c.16.57.36 1.04.62 1.4.26.35.56.53.92.53.51 0 .99-.22 1.42-.66.43-.43.83-1.02 1.19-1.78.35-.75.67-1.6.94-2.55.28-.95.52-1.92.71-2.9.12-.6.26-1.03.42-1.28.16-.26.4-.39.7-.39.28 0 .53.09.75.27.22.18.33.58.33 1.21 0 .4-.03.66-.06.78-.12.7-.35 1.69-.68 2.94-.34 1.24-.8 2.47-1.37 3.68-.57 1.2-1.27 2.26-2.1 3.17s-1.8 1.37-2.9 1.37c-1.07 0-2-.31-2.79-.92a7.11 7.11 0 0 1-1.98-2.56 15 15 0 0 1-1.21-3.85 26.05 26.05 0 0 1-.42-4.78v-.54z"/><path fill="#000" d="M97.67 42.3a11.2 11.2 0 0 1-1.8 4.13c-.5.69-1.07 1.27-1.72 1.75-.66.47-1.38.7-2.17.7a4.21 4.21 0 0 1-3.1-1.36 6.43 6.43 0 0 1-1.63-3.86l-.83 2.2c-.32.83-.71 1.6-1.19 2.32a8.05 8.05 0 0 1-1.63 1.8 3.34 3.34 0 0 1-2.7.69 5.19 5.19 0 0 1-.38-.15 2.68 2.68 0 0 0-1.21-.2c-.95 0-1.75-.32-2.4-.93a6.68 6.68 0 0 1-1.57-2.34c-.4-.95-.68-2-.86-3.12a20.43 20.43 0 0 1-.27-3.18c0-2.37.13-4.63.39-6.76a25.8 25.8 0 0 1 1.27-5.67c.6-1.65 1.36-2.95 2.31-3.92a4.63 4.63 0 0 1 3.44-1.46c.79 0 1.39.07 1.8.21.42.14.8.3 1.16.48l1.15.56c.42.2 1 .36 1.75.48a4.26 4.26 0 0 1 1.75 1.69c.33.65.55 1.35.65 2.1.1.76.13 1.54.09 2.35-.04.81 0 1.61.12 2.4 0 .04.09.1.26.18l.63.27c.23.1.44.24.62.42.17.17.26.4.26.68V35c-.4 1.03-.63 1.94-.7 2.73a28.95 28.95 0 0 0-.04 4.66c.06.65.16 1.26.3 1.84.14.57.35 1.05.62 1.42s.63.57 1.07.57c.47 0 .9-.24 1.27-.72a7 7 0 0 0 .95-1.63 16.11 16.11 0 0 0 .97-3.3c.08-.47.28-.7.6-.7.2 0 .38.1.56.32.18.22.27.6.27 1.16v.44c0 .14-.02.31-.06.5zm-10.96-9.62c0-.43-.04-.95-.11-1.54s-.22-1.15-.42-1.67c-.2-.5-.5-.95-.89-1.3a2.3 2.3 0 0 0-1.6-.54c-1.1 0-2 .5-2.7 1.52-.68 1-1.23 2.2-1.62 3.56-.4 1.37-.65 2.77-.77 4.22a44.03 44.03 0 0 0-.18 3.41c0 .63.03 1.4.09 2.29.06.89.17 1.73.33 2.52.15.79.38 1.46.68 2.02.3.55.68.83 1.15.83a3 3 0 0 0 2.64-1.34c.6-.89 1.07-2 1.39-3.32.31-1.33.54-2.75.68-4.28l.39-4.18c.08-.68.25-1.1.53-1.28.27-.18.41-.3.41-.39v-.53z"/><path fill="#000" d="M113.49 43.43c-.95 2.25-2.17 3.89-3.65 4.9a9.07 9.07 0 0 1-5.24 1.5h-.56a7.83 7.83 0 0 1-3.4-.98c-.92-.49-1.7-1.18-2.38-2.08-.67-.89-1.2-1.98-1.6-3.27-.4-1.29-.59-2.77-.59-4.43 0-1.59.2-3.26.62-5a10.92 10.92 0 0 1 2.52-4.76c1.1-1.27 2.4-2.28 3.88-3.04a9.9 9.9 0 0 1 4.53-1.13 6 6 0 0 1 2.05.33c.6.23.95.5 1.03.82.08.44.13 1 .15 1.66.02.66.03 1.52.03 2.6 0 .9-.07 1.58-.2 2.01-.15.44-.43.66-.87.66a1.14 1.14 0 0 1-1-.75c-.2-.45-.4-.95-.6-1.48a6.63 6.63 0 0 0-.77-1.48c-.31-.46-.83-.7-1.54-.75a3.2 3.2 0 0 0-2.54 1.19c-.68.8-1.2 1.72-1.57 2.79a15.7 15.7 0 0 0-.77 3.2c-.14 1.07-.21 1.9-.21 2.5 0 2.3.34 4.26 1.03 5.9a4.15 4.15 0 0 0 3.7 2.7l.66.07c1.22 0 2.2-.31 2.96-.92a8.19 8.19 0 0 0 1.8-2.02c.46-.73.82-1.4 1.07-2.02.26-.61.52-.92.8-.92h.18c.51.04.77.38.77 1 0 .29-.1.68-.3 1.2z"/><path fill="#000" d="M137.06 42.3a11.15 11.15 0 0 1-1.8 4.13c-.5.69-1.07 1.27-1.72 1.75-.66.47-1.38.7-2.17.7a4.21 4.21 0 0 1-3.1-1.36 6.43 6.43 0 0 1-1.64-3.86l-.82 2.2c-.32.83-.72 1.6-1.19 2.32a8.03 8.03 0 0 1-1.63 1.8 3.34 3.34 0 0 1-2.7.69 5.36 5.36 0 0 1-.38-.15 2.68 2.68 0 0 0-1.21-.2c-.95 0-1.75-.32-2.4-.93a6.7 6.7 0 0 1-1.57-2.34 13.5 13.5 0 0 1-.86-3.12 20.42 20.42 0 0 1-.27-3.18c0-2.37.13-4.63.39-6.76a25.8 25.8 0 0 1 1.27-5.67c.6-1.65 1.36-2.95 2.31-3.92a4.63 4.63 0 0 1 3.44-1.46 6 6 0 0 1 1.8.21c.42.14.8.3 1.16.48l1.16.56c.41.2 1 .36 1.74.48a4.26 4.26 0 0 1 1.75 1.69c.33.65.55 1.35.65 2.1.1.76.13 1.54.09 2.35-.04.81 0 1.61.12 2.4 0 .04.09.1.27.18l.62.27c.23.1.44.24.62.42.18.17.27.4.27.68V35c-.4 1.03-.64 1.94-.71 2.73a28.95 28.95 0 0 0-.03 4.66c.06.65.15 1.26.3 1.84.13.57.34 1.05.61 1.42s.64.57 1.07.57c.47 0 .9-.24 1.27-.72a7 7 0 0 0 .95-1.63 16.12 16.12 0 0 0 .98-3.3c.08-.47.27-.7.6-.7.19 0 .38.1.55.32.18.22.27.6.27 1.16v.44c0 .14-.02.31-.06.5zm-10.96-9.62c0-.43-.04-.95-.12-1.54s-.21-1.15-.41-1.67c-.2-.5-.5-.95-.89-1.3a2.3 2.3 0 0 0-1.6-.54c-1.1 0-2 .5-2.7 1.52-.69 1-1.23 2.2-1.62 3.56-.4 1.37-.65 2.77-.77 4.22a44.55 44.55 0 0 0-.18 3.41c0 .63.03 1.4.09 2.29.06.89.16 1.73.32 2.52s.39 1.46.68 2.02c.3.55.69.83 1.16.83a3 3 0 0 0 2.64-1.34c.6-.89 1.07-2 1.39-3.32.31-1.33.54-2.75.68-4.28l.38-4.18c.08-.68.26-1.1.54-1.28.27-.18.41-.3.41-.39v-.53z"/><path fill="#000" d="M155.19 34.16a37.88 37.88 0 0 0-1.55 3.39 81.5 81.5 0 0 0-1.06 2.79c-.04.2-.15.61-.33 1.25l-.59 2.1c-.22.77-.4 1.54-.56 2.29s-.24 1.36-.24 1.84c0 .2-.18.38-.53.53-.36.16-.81.24-1.36.24-.87 0-1.56-.12-2.08-.35s-.9-.63-1.15-1.16a5.8 5.8 0 0 1-.48-2.1c-.05-.88-.08-1.93-.08-3.16v-4.45l-.03-.95c-.02-.31-.1-.51-.21-.59-.2.08-.44.6-.74 1.54-.3.95-.57 2.11-.83 3.48a78.1 78.1 0 0 0-.68 4.3c-.2 1.5-.3 2.85-.3 4.04 0 .43-.23.69-.68.77a5.8 5.8 0 0 1-2.3.03c-.39-.06-.76-.13-1.14-.21s-.72-.19-1.03-.33c-.32-.14-.52-.3-.6-.5-.2-.52-.34-1.37-.44-2.56-.1-1.18-.15-3.02-.15-5.52 0-1.46.03-3.16.1-5.1l.2-6.83c0-.35-.02-.82-.06-1.4l-.06-.97c0-.32.13-.5.39-.57.25-.06.44-.08.56-.08.28 0 .6.02.98.08a23.36 23.36 0 0 1 2.16.48c.31.1.53.19.65.27v14.3l.68-2.76c.26-1.05.55-2.08.89-3.11.34-1.03.7-1.98 1.1-2.85.4-.87.8-1.5 1.24-1.9.16-.12.45-.21.89-.27.43-.06.79-.09 1.07-.09a4.32 4.32 0 0 1 1.6.36c.27.12.52.26.73.44.22.18.35.39.39.62v10.16c0 .23.04.35.12.35s.3-.53.67-1.6l1.33-3.8c.51-1.46 1.06-2.97 1.65-4.51a37.42 37.42 0 0 1 1.59-3.68c.07-.16.34-.25.8-.27l1.2-.03c.27 0 .65.09 1.12.27a6.34 6.34 0 0 1 2.57 1.8c.33.4.5.82.5 1.25 0 .08-.12.31-.35.69-.24.37-.4.76-.48 1.15-.28 1.11-.46 2.2-.56 3.27a45.62 45.62 0 0 0-.06 6.23c.06.71.16 1.36.3 1.93.13.58.32 1.04.56 1.4.24.35.55.53.95.53a2.2 2.2 0 0 0 1.48-.56c.43-.38.8-.88 1.12-1.52.32-.63.6-1.37.83-2.22.24-.85.44-1.73.6-2.64.19-.95.55-1.43 1.06-1.43.31 0 .52.08.62.24.1.16.15.51.15 1.07a14.84 14.84 0 0 1-.56 3.06 18.5 18.5 0 0 1-1.25 3.26 10.98 10.98 0 0 1-1.98 2.85 3.7 3.7 0 0 1-2.73 1.22 4.93 4.93 0 0 1-3-.86c-.78-.58-1.38-1.35-1.81-2.32s-.73-2.09-.9-3.35a28.9 28.9 0 0 1-.27-3.98v-.42l.35-4.87z"/>
  </symbol>
  <symbol id="github" viewBox="0 0 80 22">
    <path d="M15.479 9.436H8.726a.316.316 0 0 0-.315.316v3.301c0 .176.141.316.315.316h2.635v4.104s-.592.197-2.226.197c-1.93 0-4.625-.707-4.625-6.631 0-5.928 2.806-6.707 5.441-6.707 2.281 0 3.263.4 3.889.595.196.063.375-.135.375-.312l.755-3.189a.298.298 0 0 0-.119-.246C14.596 1.002 13.046.135 9.135.135 4.625.135.001 2.053.001 11.274c0 9.219 5.294 10.592 9.756 10.592 3.693 0 5.937-1.576 5.937-1.576.091-.051.101-.18.101-.237v-10.3a.32.32 0 0 0-.316-.317zM49.633.923h-3.8a.316.316 0 0 0-.316.315v7.349h-5.926V1.238a.315.315 0 0 0-.313-.315h-3.804a.315.315 0 0 0-.311.315v19.896c0 .176.141.316.311.316h3.804a.316.316 0 0 0 .313-.316v-8.509h5.926l-.013 8.509c0 .18.142.316.312.316h3.806a.315.315 0 0 0 .313-.316l.014-19.896a.318.318 0 0 0-.316-.315zm-29.611.451c-1.354 0-2.452 1.108-2.452 2.476 0 1.368 1.098 2.477 2.452 2.477s2.451-1.107 2.451-2.477c0-1.368-1.097-2.476-2.451-2.476zm2.181 6.381a.314.314 0 0 0-.312-.315h-3.792c-.178 0-.329.178-.329.354V20.95c0 .386.24.502.552.502h3.415c.373 0 .471-.185.471-.51-.002-.705-.002-3.468-.002-4.002-.003-.51-.003-9.185-.003-9.185zm42.148-.287H60.58a.315.315 0 0 0-.312.317v9.754s-.959.705-2.322.705c-1.358 0-1.723-.617-1.723-1.953V7.783a.318.318 0 0 0-.313-.317h-3.825a.314.314 0 0 0-.313.317v9.151c0 3.956 2.205 4.927 5.234 4.927 2.488 0 4.497-1.375 4.497-1.375s.095.722.144.808c.039.086.15.173.273.173h2.428a.316.316 0 0 0 .313-.316l.01-13.365a.327.327 0 0 0-.32-.318zm10.332-.449c-2.144 0-3.602.956-3.602.956V1.24a.315.315 0 0 0-.311-.316h-3.816a.317.317 0 0 0-.313.316l-.01 19.895c0 .18.143.316.314.316h2.656c.116 0 .207-.063.273-.168.064-.107.16-.918.16-.918s1.556 1.479 4.51 1.479c3.469 0 5.453-1.759 5.453-7.895.004-6.127-3.172-6.93-5.314-6.93zM73.194 18.23c-1.307-.039-2.193-.635-2.193-.635v-6.301s.877-.538 1.951-.633c1.359-.121 2.672.289 2.672 3.531-.006 3.417-.598 4.093-2.43 4.038zm-40.006-.072c-.167 0-.594.065-1.032.065-1.398 0-1.875-.649-1.875-1.491v-5.599h2.854a.314.314 0 0 0 .313-.317V7.753a.312.312 0 0 0-.313-.318h-2.854l-.004-3.767c0-.143-.075-.215-.24-.215h-3.885c-.15 0-.233.066-.233.213V7.56s-1.949.472-2.08.511a.313.313 0 0 0-.226.303v2.447c0 .176.142.317.313.317h1.992v5.888c0 4.371 3.067 4.801 5.137 4.801.944 0 2.074-.309 2.264-.373.114-.041.179-.158.179-.284l.001-2.69a.318.318 0 0 0-.311-.322z"/>
  </symbol>
  <symbol id="opacity" viewBox="0 0 24 24">
    <path fill="none" d="M24 0H0v24h24V0zm0 0H0v24h24V0zM0 24h24V0H0v24z"/><path d="M17.66 8L12 2.35 6.34 8A8.02 8.02 0 0 0 4 13.64c0 2 .78 4.11 2.34 5.67a7.99 7.99 0 0 0 11.32 0c1.56-1.56 2.34-3.67 2.34-5.67S19.22 9.56 17.66 8zM6 14c.01-2 .62-3.27 1.76-4.4L12 5.27l4.24 4.38C17.38 10.77 17.99 12 18 14H6z"/>
  </symbol>
  <symbol id="brightness" viewBox="0 0 24 24">
    <path d="M0 0h24v24H0z" fill="none"/><path d="M20 8.69V4h-4.69L12 .69 8.69 4H4v4.69L.69 12 4 15.31V20h4.69L12 23.31 15.31 20H20v-4.69L23.31 12 20 8.69zM12 18c-.89 0-1.74-.2-2.5-.55C11.56 16.5 13 14.42 13 12s-1.44-4.5-3.5-5.45C10.26 6.2 11.11 6 12 6c3.31 0 6 2.69 6 6s-2.69 6-6 6z"/>
  </symbol>
  <symbol id="contrast" viewBox="0 0 24 24">
    <path d="M0 0h24v24H0zm0 0h24v24H0z" fill="none"/><path d="M19 3H5c-1.1 0-2 .9-2 2v14c0 1.1.9 2 2 2h14c1.1 0 2-.9 2-2V5c0-1.1-.9-2-2-2zM5.5 7.5h2v-2H9v2h2V9H9v2H7.5V9h-2V7.5zM19 19H5L19 5v14zm-2-2v-1.5h-5V17h5z"/>
  </symbol>
  <symbol id="saturation" viewBox="0 0 24 24">
    <path d="M0 0h24v24H0z" fill="none"/><path d="M12 2C6.48 2 2 6.48 2 12s4.48 10 10 10 10-4.48 10-10S17.52 2 12 2zm-1 17.93c-3.94-.49-7-3.85-7-7.93s3.05-7.44 7-7.93v15.86zm2-15.86c1.03.13 2 .45 2.87.93H13v-.93zM13 7h5.24c.25.31.48.65.68 1H13V7zm0 3h6.74c.08.33.15.66.19 1H13v-1zm0 9.93V19h2.87c-.87.48-1.84.8-2.87.93zM18.24 17H13v-1h5.92c-.2.35-.43.69-.68 1zm1.5-3H13v-1h6.93c-.04.34-.11.67-.19 1z"/>
  </symbol>
  <symbol id="hue" viewBox="0 0 24 24">
    <path d="M0 0h24v24H0z" fill="none"/><path d="M20.71 5.63l-2.34-2.34a.996.996 0 0 0-1.41 0l-3.12 3.12-1.93-1.91-1.41 1.41 1.42 1.42L3 16.25V21h4.75l8.92-8.92 1.42 1.42 1.41-1.41-1.92-1.92 3.12-3.12c.4-.4.4-1.03.01-1.42zM6.92 19L5 17.08l8.06-8.06 1.92 1.92L6.92 19z"/>
  </symbol>
  <symbol id="invert" viewBox="0 0 24 24">
    <path d="M0 0h24v24H0z" fill="none"/><path d="M17 6c-3.31 0-6 2.69-6 6s2.69 6 6 6 6-2.69 6-6-2.69-6-6-6zM5 8c-2.21 0-4 1.79-4 4s1.79 4 4 4 4-1.79 4-4-1.79-4-4-4zm0 6c-1.1 0-2-.9-2-2s.9-2 2-2 2 .9 2 2-.9 2-2 2z"/>
  </symbol>
  <symbol id="grayscale" viewBox="0 0 24 24">
    <path d="M0 0h24v24H0z" fill="none"/><path d="M19.51 3.08L3.08 19.51c.09.34.27.65.51.9.25.24.56.42.9.51L20.93 4.49c-.19-.69-.73-1.23-1.42-1.41zM11.88 3L3 11.88v2.83L14.71 3h-2.83zM5 3c-1.1 0-2 .9-2 2v2l4-4H5zm14 18c.55 0 1.05-.22 1.41-.59.37-.36.59-.86.59-1.41v-2l-4 4h2zm-9.71 0h2.83L21 12.12V9.29L9.29 21z"/>
  </symbol>
  <symbol id="sepia" viewBox="0 0 24 24">
    <path d="M13.5.67s.74 2.65.74 4.8c0 2.06-1.35 3.73-3.41 3.73-2.07 0-3.63-1.67-3.63-3.73l.03-.36C5.21 7.51 4 10.62 4 14c0 4.42 3.58 8 8 8s8-3.58 8-8C20 8.61 17.41 3.8 13.5.67zM11.71 19c-1.78 0-3.22-1.4-3.22-3.14 0-1.62 1.05-2.76 2.81-3.12 1.77-.36 3.6-1.21 4.62-2.58.39 1.29.59 2.65.59 4.04 0 2.65-2.15 4.8-4.8 4.8z"/><path d="M0 0h24v24H0z" fill="none"/>
  </symbol>
  <symbol id="blur" viewBox="0 0 24 24">
    <path d="M6 13c-.55 0-1 .45-1 1s.45 1 1 1 1-.45 1-1-.45-1-1-1zm0 4c-.55 0-1 .45-1 1s.45 1 1 1 1-.45 1-1-.45-1-1-1zm0-8c-.55 0-1 .45-1 1s.45 1 1 1 1-.45 1-1-.45-1-1-1zm-3 .5c-.28 0-.5.22-.5.5s.22.5.5.5.5-.22.5-.5-.22-.5-.5-.5zM6 5c-.55 0-1 .45-1 1s.45 1 1 1 1-.45 1-1-.45-1-1-1zm15 5.5c.28 0 .5-.22.5-.5s-.22-.5-.5-.5-.5.22-.5.5.22.5.5.5zM14 7c.55 0 1-.45 1-1s-.45-1-1-1-1 .45-1 1 .45 1 1 1zm0-3.5c.28 0 .5-.22.5-.5s-.22-.5-.5-.5-.5.22-.5.5.22.5.5.5zm-11 10c-.28 0-.5.22-.5.5s.22.5.5.5.5-.22.5-.5-.22-.5-.5-.5zm7 7c-.28 0-.5.22-.5.5s.22.5.5.5.5-.22.5-.5-.22-.5-.5-.5zm0-17c.28 0 .5-.22.5-.5s-.22-.5-.5-.5-.5.22-.5.5.22.5.5.5zM10 7c.55 0 1-.45 1-1s-.45-1-1-1-1 .45-1 1 .45 1 1 1zm0 5.5c-.83 0-1.5.67-1.5 1.5s.67 1.5 1.5 1.5 1.5-.67 1.5-1.5-.67-1.5-1.5-1.5zm8 .5c-.55 0-1 .45-1 1s.45 1 1 1 1-.45 1-1-.45-1-1-1zm0 4c-.55 0-1 .45-1 1s.45 1 1 1 1-.45 1-1-.45-1-1-1zm0-8c-.55 0-1 .45-1 1s.45 1 1 1 1-.45 1-1-.45-1-1-1zm0-4c-.55 0-1 .45-1 1s.45 1 1 1 1-.45 1-1-.45-1-1-1zm3 8.5c-.28 0-.5.22-.5.5s.22.5.5.5.5-.22.5-.5-.22-.5-.5-.5zM14 17c-.55 0-1 .45-1 1s.45 1 1 1 1-.45 1-1-.45-1-1-1zm0 3.5c-.28 0-.5.22-.5.5s.22.5.5.5.5-.22.5-.5-.22-.5-.5-.5zm-4-12c-.83 0-1.5.67-1.5 1.5s.67 1.5 1.5 1.5 1.5-.67 1.5-1.5-.67-1.5-1.5-1.5zm0 8.5c-.55 0-1 .45-1 1s.45 1 1 1 1-.45 1-1-.45-1-1-1zm4-4.5c-.83 0-1.5.67-1.5 1.5s.67 1.5 1.5 1.5 1.5-.67 1.5-1.5-.67-1.5-1.5-1.5zm0-4c-.83 0-1.5.67-1.5 1.5s.67 1.5 1.5 1.5 1.5-.67 1.5-1.5-.67-1.5-1.5-1.5z"/><path d="M0 0h24v24H0z" fill="none"/>
  </symbol>
  <symbol id="camera" viewBox="0 0 24 24">
    <circle cx="12" cy="12" r="3.2"/><path d="M9 2L7.17 4H4c-1.1 0-2 .9-2 2v12c0 1.1.9 2 2 2h16c1.1 0 2-.9 2-2V6c0-1.1-.9-2-2-2h-3.17L15 2H9zm3 15c-2.76 0-5-2.24-5-5s2.24-5 5-5 5 2.24 5 5-2.24 5-5 5z"/><path d="M0 0h24v24H0z" fill="none"/>
  </symbol>
  <symbol id="quality" viewBox="0 0 24 24">
    <path d="M0 0h24v24H0z" fill="none"/><path d="M10 12c-1.1 0-2 .9-2 2s.9 2 2 2 2-.9 2-2-.9-2-2-2zM6 8c-1.1 0-2 .9-2 2s.9 2 2 2 2-.9 2-2-.9-2-2-2zm0 8c-1.1 0-2 .9-2 2s.9 2 2 2 2-.9 2-2-.9-2-2-2zm12-8c1.1 0 2-.9 2-2s-.9-2-2-2-2 .9-2 2 .9 2 2 2zm-4 8c-1.1 0-2 .9-2 2s.9 2 2 2 2-.9 2-2-.9-2-2-2zm4-4c-1.1 0-2 .9-2 2s.9 2 2 2 2-.9 2-2-.9-2-2-2zm-4-4c-1.1 0-2 .9-2 2s.9 2 2 2 2-.9 2-2-.9-2-2-2zm-4-4c-1.1 0-2 .9-2 2s.9 2 2 2 2-.9 2-2-.9-2-2-2z"/>
  </symbol>
</svg>
